<?xml version="1.0" encoding="UTF-8" standalone="no"?><!DOCTYPE svg PUBLIC "-//W3C//DTD SVG 1.1//EN" "http://www.w3.org/Graphics/SVG/1.1/DTD/svg11.dtd"><svg width="100%" height="100%" viewBox="0 0 1449 252" version="1.1" xmlns="http://www.w3.org/2000/svg" xmlns:xlink="http://www.w3.org/1999/xlink" xml:space="preserve" xmlns:serif="http://www.serif.com/" style="fill-rule:evenodd;clip-rule:evenodd;stroke-linejoin:round;stroke-miterlimit:2;"><g><path d="M188.878,188.878l-62.96,62.959l-125.918,-125.919l125.918,-125.918l62.96,62.959l62.959,-62.959l125.918,125.918l-125.918,125.919l-62.959,-62.959Zm-0,-0l62.959,-62.96l-62.959,-62.959l-62.96,62.959l62.96,62.96Z" style="fill:#0275d8;"/><path d="M440.715,188.878l-62.96,62.959l-125.918,-125.919l125.918,-125.918l62.96,62.959l62.959,-62.959l125.918,125.918l-125.918,125.919l-62.959,-62.959Zm-0,-0l62.959,-62.96l-62.959,-62.959l-62.96,62.959l62.96,62.96Z" style="fill:#0275d8;"/><path d="M629.592,188.878l-62.959,62.959l-125.918,-125.919l125.918,-125.918l62.959,62.959l62.959,-62.959l125.919,125.918l-125.919,125.919l-62.959,-62.959Zm0,-0l62.959,-62.96l-62.959,-62.959l-62.959,62.959l62.959,62.96Z" style="fill:#0275d8;"/><path d="M818.47,188.878l-62.959,62.959l-125.919,-125.919l125.919,-125.918l62.959,62.959l62.959,-62.959l125.918,125.918l-125.918,125.919l-62.959,-62.959Zm-0,-0l62.959,-62.96l-62.959,-62.959l-62.959,62.959l62.959,62.96Z" style="fill:#0275d8;"/><path d="M1007.35,188.878l-62.959,62.959l-125.918,-125.919l125.918,-125.918l62.959,62.959l62.96,-62.959l125.918,125.918l-125.918,125.919l-62.96,-62.959Zm0,-0l62.96,-62.96l-62.96,-62.959l-62.959,62.959l62.959,62.96Z" style="fill:#0275d8;"/><path d="M1259.18,188.878l-62.959,62.959l-125.918,-125.919l125.918,-125.918l62.959,62.959l62.96,-62.959l125.918,125.918l-125.918,125.919l-62.96,-62.959Zm0,-0l62.96,-62.96l-62.96,-62.959l-62.959,62.959l62.959,62.96Z" style="fill:#0275d8;"/></g></svg>