<?xml version="1.0" encoding="UTF-8" standalone="no"?>
<!DOCTYPE svg PUBLIC "-//W3C//DTD SVG 1.1//EN" "http://www.w3.org/Graphics/SVG/1.1/DTD/svg11.dtd">
<svg width="100%" height="100%" viewBox="0 0 707 123" version="1.1" xmlns="http://www.w3.org/2000/svg" xmlns:xlink="http://www.w3.org/1999/xlink" xml:space="preserve" xmlns:serif="http://www.serif.com/" style="fill-rule:evenodd;clip-rule:evenodd;stroke-linejoin:round;stroke-miterlimit:2;">
    <g transform="matrix(1,0,0,1,-520.845,-1178.74)">
        <g transform="matrix(1.26462e-16,-2.06528,2.06528,1.26462e-16,-2040.43,2404.48)">
            <g transform="matrix(0.769679,0,0,0.769679,-36.1739,260.285)">
                <path d="M760.14,1331.05L740.821,1311.73L779.46,1273.09L818.099,1311.73L798.78,1331.05L818.099,1350.37L779.46,1389.01L740.821,1350.37L760.14,1331.05ZM760.14,1331.05L779.46,1350.37L798.78,1331.05L779.46,1311.73L760.14,1331.05Z" style="fill:white;"/>
            </g>
            <g transform="matrix(0.769679,0,0,0.769679,-36.1739,319.764)">
                <path d="M760.14,1331.05L740.821,1311.73L779.46,1273.09L818.099,1311.73L798.78,1331.05L818.099,1350.37L779.46,1389.01L740.821,1350.37L760.14,1331.05ZM760.14,1331.05L779.46,1350.37L798.78,1331.05L779.46,1311.73L760.14,1331.05Z" style="fill:white;"/>
            </g>
            <g transform="matrix(0.769679,0,0,0.769679,-36.1739,364.374)">
                <path d="M760.14,1331.05L740.821,1311.73L779.46,1273.09L818.099,1311.73L798.78,1331.05L818.099,1350.37L779.46,1389.01L740.821,1350.37L760.14,1331.05ZM760.14,1331.05L779.46,1350.37L798.78,1331.05L779.46,1311.73L760.14,1331.05Z" style="fill:white;"/>
            </g>
            <g transform="matrix(0.769679,0,0,0.769679,-36.1739,408.984)">
                <path d="M760.14,1331.05L740.821,1311.73L779.46,1273.09L818.099,1311.73L798.78,1331.05L818.099,1350.37L779.46,1389.01L740.821,1350.37L760.14,1331.05ZM760.14,1331.05L779.46,1350.37L798.78,1331.05L779.46,1311.73L760.14,1331.05Z" style="fill:white;"/>
            </g>
            <g transform="matrix(0.769679,0,0,0.769679,-36.1739,453.593)">
                <path d="M760.14,1331.05L740.821,1311.73L779.46,1273.09L818.099,1311.73L798.78,1331.05L818.099,1350.37L779.46,1389.01L740.821,1350.37L760.14,1331.05ZM760.14,1331.05L779.46,1350.37L798.78,1331.05L779.46,1311.73L760.14,1331.05Z" style="fill:white;"/>
            </g>
            <g transform="matrix(0.769679,0,0,0.769679,-36.1739,513.073)">
                <path d="M760.14,1331.05L740.821,1311.73L779.46,1273.09L818.099,1311.73L798.78,1331.05L818.099,1350.37L779.46,1389.01L740.821,1350.37L760.14,1331.05ZM760.14,1331.05L779.46,1350.37L798.78,1331.05L779.46,1311.73L760.14,1331.05Z" style="fill:white;"/>
            </g>
        </g>
    </g>
</svg>
